
<svg viewBox="0 0 512 512" xmlns="http://www.w3.org/2000/svg">
    <path d="M304 0C312.8 0 320 7.2 320 16V48H352C360.8 48 368 55.2 368 64 368 72.8 360.8 80 352 80H320V112C320 120.8 312.8 128 304 128 295.2 128 288 120.8 288 112V80H256C247.2 80 240 72.8 240 64 240 55.2 247.2 48 256 48H288V16C288 7.2 295.2 0 304 0ZM156.6 163.9C85.3 180 32 243.8 32 320.2 32 408.7 103.6 480.4 191.8 480.4 217.5 480.4 241.8 474.3 263.3 463.5 175.7 452.2 108.2 377.1 108.2 286.3 108.2 238.9 126.6 195.9 156.6 163.9ZM0 320.2C0 214.1 85.8 128 191.8 128 197.3 128 202.7 128.2 208.1 128.7 215.1 129.3 220.9 134.4 222.4 141.2 223.9 148 220.8 155.1 214.7 158.5 170.3 183.7 140.3 231.5 140.3 286.3 140.3 367.3 205.8 432.9 286.5 432.9 295.1 432.9 303.5 432.2 311.6 430.7 318.5 429.5 325.4 432.9 328.6 439.2 331.8 445.5 330.5 453 325.5 457.9 291 491.5 243.8 512.3 191.9 512.3 85.8 512.4 0 426.3 0 320.2ZM432 160V224H496C504.8 224 512 231.2 512 240 512 248.8 504.8 256 496 256H432V320C432 328.8 424.8 336 416 336 407.2 336 400 328.8 400 320V256H336C327.2 256 320 248.8 320 240 320 231.2 327.2 224 336 224H400V160C400 151.2 407.2 144 416 144 424.8 144 432 151.2 432 160Z"/>
</svg>