
<svg viewBox="0 0 16 16" xmlns="http://www.w3.org/2000/svg">
    <path d="M12.781 4.281C13.075 3.987 13.075 3.512 12.781 3.221 12.487 2.931 12.012 2.928 11.722 3.221L8.003 6.94 4.281 3.218C3.987 2.924 3.512 2.924 3.221 3.218 2.931 3.512 2.928 3.987 3.221 4.278L6.94 7.996 3.218 11.718C2.925 12.012 2.925 12.487 3.218 12.778 3.512 13.068 3.987 13.071 4.278 12.778L7.996 9.059 11.718 12.781C12.012 13.075 12.487 13.075 12.778 12.781 13.068 12.487 13.072 12.012 12.778 11.721L9.059 8.003 12.781 4.281Z"/>
</svg>
