<svg viewBox="0 0 945 160" version="1.1" xmlns="http://www.w3.org/2000/svg">
  <path
    fill="#ecf5ac"
    fill-opacity="0.75"
    d="M80,60.87l0,38.261c0,22.077 -17.923,40 -40,40c-22.077,0 -40,-17.923 -40,-40l0,-38.261c0,-22.077 17.923,-40 40,-40c22.077,0 40,17.923 40,40Z"
 />
  <path
    fill="#646922"
    fill-opacity="0.75"
    d="M160,60.87l0,38.261c0,22.077 -17.923,40 -40,40c-22.077,0 -40,-17.923 -40,-40l0,-38.261c0,-22.077 17.923,-40 40,-40c22.077,0 40,17.923 40,40Z"
  />
  <path
    fill="#dfeb57"
    fill-opacity="0.75"
    d="M121.739,41.739l0,76.522c0,23.036 -18.703,41.739 -41.739,41.739c-23.036,0 -41.739,-18.703 -41.739,-41.739l0,-76.522c0,-23.036 18.703,-41.739 41.739,-41.739c23.036,0 41.739,18.703 41.739,41.739Z"
  />
  <path
    fill="#ffffff"
    d="M289.419,95.871c-1.188,9.179 -3.753,17.171 -7.695,23.975c-3.942,6.804 -8.91,12.041 -14.903,15.713c-5.994,3.672 -12.716,5.508 -20.168,5.508c-9.611,0 -17.927,-2.43 -24.947,-7.29c-7.02,-4.86 -12.392,-11.798 -16.118,-20.816c-3.726,-9.018 -5.589,-19.628 -5.589,-31.831c0,-12.311 1.863,-23.003 5.589,-32.074c3.726,-9.072 9.098,-16.037 16.118,-20.897c7.02,-4.86 15.335,-7.29 24.947,-7.29c10.907,0 20.195,3.942 27.862,11.825c7.668,7.884 12.581,18.575 14.741,32.074l-24.947,1.458c-1.404,-8.316 -3.645,-14.417 -6.723,-18.305c-3.078,-3.888 -6.993,-5.832 -11.744,-5.832c-4.536,0 -8.37,1.485 -11.501,4.455c-3.132,2.97 -5.481,7.344 -7.047,13.121c-1.566,5.778 -2.349,12.932 -2.349,21.464c0,8.424 0.783,15.524 2.349,21.302c1.566,5.778 3.915,10.124 7.047,13.04c3.132,2.916 6.966,4.374 11.501,4.374c4.968,0 8.991,-2.025 12.068,-6.075c3.078,-4.05 5.265,-10.448 6.561,-19.196l24.947,1.296Zm52.16,44.548c-7.884,0 -15.011,-1.89 -21.383,-5.67c-6.372,-3.78 -11.339,-9.072 -14.903,-15.875c-3.564,-6.804 -5.346,-14.579 -5.346,-23.327c0,-8.748 1.782,-16.523 5.346,-23.327c3.564,-6.804 8.532,-12.095 14.903,-15.875c6.372,-3.78 13.499,-5.67 21.383,-5.67c7.884,0 15.011,1.89 21.383,5.67c6.372,3.78 11.339,9.072 14.903,15.875c3.564,6.804 5.346,14.579 5.346,23.327c0,8.748 -1.782,16.523 -5.346,23.327c-3.564,6.804 -8.532,12.095 -14.903,15.875c-6.372,3.78 -13.499,5.67 -21.383,5.67Zm0.023,-19.925c5.385,0 9.643,-2.238 12.775,-6.714c3.132,-4.476 4.698,-10.551 4.698,-18.225c0,-7.673 -1.573,-13.75 -4.719,-18.232c-3.146,-4.482 -7.412,-6.723 -12.799,-6.723c-5.385,0 -9.643,2.238 -12.775,6.714c-3.132,4.476 -4.698,10.551 -4.698,18.225c0,7.673 1.573,13.75 4.719,18.232c3.146,4.482 7.412,6.723 12.799,6.723Zm126.977,17.981l-78.404,0l0,-20.249l29.482,0l0,-65.282c0,-3.132 -0.702,-5.454 -2.106,-6.966c-1.404,-1.512 -3.618,-2.268 -6.642,-2.268l-19.601,0l0,-20.249l19.601,0c10.475,0 18.359,2.457 23.651,7.371c5.292,4.914 7.938,12.284 7.938,22.112l0,65.282l26.081,0l0,20.249Zm47.138,1.944c-7.884,0 -15.011,-1.89 -21.383,-5.67c-6.372,-3.78 -11.339,-9.072 -14.903,-15.875c-3.564,-6.804 -5.346,-14.579 -5.346,-23.327c0,-8.748 1.782,-16.523 5.346,-23.327c3.564,-6.804 8.532,-12.095 14.903,-15.875c6.372,-3.78 13.499,-5.67 21.383,-5.67c7.884,0 15.011,1.89 21.383,5.67c6.372,3.78 11.339,9.072 14.903,15.875c3.564,6.804 5.346,14.579 5.346,23.327c0,8.748 -1.782,16.523 -5.346,23.327c-3.564,6.804 -8.532,12.095 -14.903,15.875c-6.372,3.78 -13.499,5.67 -21.383,5.67Zm0.023,-19.925c5.385,0 9.643,-2.238 12.775,-6.714c3.132,-4.476 4.698,-10.551 4.698,-18.225c0,-7.673 -1.573,-13.75 -4.719,-18.232c-3.146,-4.482 -7.412,-6.723 -12.799,-6.723c-5.385,0 -9.643,2.238 -12.775,6.714c-3.132,4.476 -4.698,10.551 -4.698,18.225c0,7.673 1.573,13.75 4.719,18.232c3.146,4.482 7.412,6.723 12.799,6.723Zm77.407,-47.625l-20.897,0l0,-20.249l34.99,0l1.409,16.202c1.221,-4.81 3.208,-8.51 5.962,-11.099c3.618,-3.402 8.721,-5.103 15.308,-5.103l18.467,0l0,20.249l-15.713,0c-3.996,0 -7.209,0.567 -9.638,1.701c-2.43,1.134 -4.185,2.916 -5.265,5.346c-1.08,2.43 -1.62,5.643 -1.62,9.638l0,28.672l24.947,0l0,20.249l-68.846,0l0,-20.249l20.897,0l0,-45.358Zm94.115,-5.129l0,70.735l-23.651,0l0,-115.014l29.968,0l12.462,66.462l12.323,-66.462l30.13,0l0,115.014l-23.651,0l0,-71.082l-11.663,62.982l-14.417,0l-11.501,-62.636Zm159.074,70.735l-79.538,0l0,-20.249l30.616,0l0,-45.358l-28.51,0l0,-20.249l51.513,0l0,65.606l25.919,0l0,20.249Zm-26.081,-115.014l0,19.115l-23.003,0l0,-19.115l23.003,0Zm123.112,29.158l-29.644,41.956l31.102,43.9l-27.7,0l-16.685,-25.271l-16.847,25.271l-27.7,0l31.426,-44.062l-29.806,-41.794l27.7,0l15.227,23.165l15.065,-23.165l27.862,0Z"/>
</svg>
